HIERARCHY
ROOT Hips
{
	OFFSET -0.001795 -0.223333 0.028219
	CHANNELS 6 Xposition Yposition Zposition Zrotation Yrotation Xrotation 
	JOINT LeftUpLeg
	{
		OFFSET 0.069520 -0.091406 -0.006815
		CHANNELS 3 Zrotation Yrotation Xrotation
		JOINT LeftLeg
		{
			OFFSET 0.034277 -0.375199 -0.004496
			CHANNELS 3 Zrotation Yrotation Xrotation
			JOINT LeftFoot
			{
				OFFSET -0.013596 -0.397961 -0.043693
				CHANNELS 3 Zrotation Yrotation Xrotation
				JOINT LeftToe
				{
					OFFSET 0.026358 -0.055791 0.119288
					CHANNELS 3 Zrotation Yrotation Xrotation
					End Site
					{
						OFFSET 0.000000 0.000000 0.000000
					}
				}
			}
		}
	}
	JOINT RightUpLeg
	{
		OFFSET -0.067670 -0.090522 -0.004320
		CHANNELS 3 Zrotation Yrotation Xrotation
		JOINT RightLeg
		{
			OFFSET -0.038290 -0.382569 -0.008850
			CHANNELS 3 Zrotation Yrotation Xrotation
			JOINT RightFoot
			{
				OFFSET 0.015774 -0.398415 -0.042312
				CHANNELS 3 Zrotation Yrotation Xrotation
				JOINT RightToe
				{
					OFFSET -0.025372 -0.048144 0.123348
					CHANNELS 3 Zrotation Yrotation Xrotation
					End Site
					{
						OFFSET 0.000000 0.000000 0.000000
					}
				}
			}
		}
	}
	JOINT Spine
	{
		OFFSET -0.002533 0.108963 -0.026696
		CHANNELS 3 Zrotation Yrotation Xrotation
		JOINT Spine1
		{
			OFFSET 0.005487 0.135180 0.001092
			CHANNELS 3 Zrotation Yrotation Xrotation
			JOINT Spine2
			{
				OFFSET 0.001457 0.052922 0.025425
				CHANNELS 3 Zrotation Yrotation Xrotation
				JOINT Neck
				{
					OFFSET -0.002778 0.213870 -0.042857
					CHANNELS 3 Zrotation Yrotation Xrotation
					JOINT Head
					{
						OFFSET 0.005152 0.064970 0.051349
						CHANNELS 3 Zrotation Yrotation Xrotation
						End Site
						{
							OFFSET 0.000000 0.000000 0.000000
						}
					}
				}
				JOINT LeftShoulder
				{
					OFFSET 0.078845 0.121749 -0.034090
					CHANNELS 3 Zrotation Yrotation Xrotation
					JOINT LeftArm
					{
						OFFSET 0.090977 0.030469 -0.008868
						CHANNELS 3 Zrotation Yrotation Xrotation
						JOINT LeftForeArm
						{
							OFFSET 0.259612 -0.012772 -0.027456
							CHANNELS 3 Zrotation Yrotation Xrotation
							JOINT LeftHand
							{
								OFFSET 0.249234 0.008986 -0.001171
								CHANNELS 3 Zrotation Yrotation Xrotation
								End Site
								{
									OFFSET 0.000000 0.000000 0.000000
								}
							}
						}
					}
				}
				JOINT RightShoulder
				{
					OFFSET -0.081759 0.118833 -0.038615
					CHANNELS 3 Zrotation Yrotation Xrotation
					JOINT RightArm
					{
						OFFSET -0.096012 0.032551 -0.009143
						CHANNELS 3 Zrotation Yrotation Xrotation
						JOINT RightForeArm
						{
							OFFSET -0.253742 -0.013329 -0.021401
							CHANNELS 3 Zrotation Yrotation Xrotation
							JOINT RightHand
							{
								OFFSET -0.255298 0.007772 -0.005559
								CHANNELS 3 Zrotation Yrotation Xrotation
								End Site
								{
									OFFSET 0.000000 0.000000 0.000000
								}
							}
						}
					}
				}
			}
		}
	}
}
MOTION
Frames: 7
Frame Time: 0.050000
0.126926 0.912267 1.549091 -3.552287 15.452716 -10.148660 8.834697 -0.367253 7.339231 1.968067 -6.034677 44.090103 -4.592075 -5.229028 5.926624 0.000000 0.000000 0.000000 1.348149 1.313837 -13.006267 0.213675 -0.175657 22.059028 -3.208045 -8.349087 2.350191 0.000000 0.000000 0.000000 0.649280 -0.704225 11.549631 1.449955 -0.779127 0.991826 0.115824 -2.480692 5.025515 -1.065208 2.665362 -20.796340 0.000000 0.000000 0.000000 -23.663231 3.715193 -6.068397 -39.079232 -4.927689 -2.737542 6.433431 -32.332601 -1.077821 0.000000 0.000000 0.000000 18.919306 1.960583 0.642525 45.855628 5.936529 -2.821033 -8.073045 30.114430 -0.592774 0.000000 0.000000 0.000000 
0.126863 0.915781 1.596297 -4.112777 14.919237 -11.259961 10.137128 -0.263395 -2.691301 -2.860647 -6.271440 59.487291 -0.657786 2.837757 8.067596 0.000000 0.000000 0.000000 3.286132 1.111054 -8.318480 0.030751 -0.115218 22.462462 -3.159577 -8.112069 -0.227472 0.000000 0.000000 0.000000 1.282085 -0.868253 12.937111 0.140063 -0.009793 -0.185301 1.396109 -0.247472 6.901569 0.048872 2.358849 -21.614781 0.000000 0.000000 0.000000 -24.850685 2.889091 -6.415101 -39.613441 -4.108514 -2.964771 4.440743 -32.485051 -0.635227 0.000000 0.000000 0.000000 19.093107 2.292346 1.373536 44.307114 8.671450 -2.143260 -7.480871 27.250186 -0.292785 0.000000 0.000000 0.000000 
0.132172 0.925009 1.638220 -3.734882 13.934491 -10.858546 9.025408 -0.365673 -9.947211 -4.093291 -5.102263 59.809144 2.896886 7.432586 3.612252 0.000000 0.000000 0.000000 3.205477 0.480828 -3.142197 -0.337999 0.208297 17.581874 -1.987098 -5.171028 -0.195834 0.000000 0.000000 0.000000 0.804426 -0.817992 12.985522 -0.106420 0.116932 -0.323661 1.576274 2.025020 7.352260 1.298477 1.877499 -21.489500 0.000000 0.000000 0.000000 -23.927363 3.019810 -6.778377 -41.545318 -2.768035 -3.475278 1.335223 -31.104280 0.121027 0.000000 0.000000 0.000000 19.892464 3.298009 2.435427 42.172546 11.559658 -1.367118 -7.564247 26.070097 -0.241209 0.000000 0.000000 0.000000 
0.142225 0.937154 1.678174 -2.790133 12.054716 -9.753959 7.884025 -0.595617 -14.214721 -3.887120 -3.165188 50.403286 4.227712 9.426668 2.052342 0.000000 0.000000 0.000000 2.439922 -0.176850 1.606816 -0.839333 0.441326 13.143645 -0.589646 -1.609024 0.102995 0.000000 0.000000 0.000000 0.388665 -0.725985 12.645750 -1.264005 0.704175 -0.908888 2.339024 3.625129 8.117028 1.177119 2.065718 -22.087451 0.000000 0.000000 0.000000 -23.907564 3.324086 -7.067197 -42.415644 -0.317341 -4.420845 -2.034512 -31.369339 1.047268 0.000000 0.000000 0.000000 19.612804 3.766056 2.847638 42.148951 14.688796 -0.402474 -8.183214 27.148221 -0.335087 0.000000 0.000000 0.000000 
0.156077 0.945331 1.717151 -1.909988 9.758008 -8.724940 6.547793 -0.709050 -14.625901 -1.070679 -2.122318 33.535176 2.513744 6.438475 2.824715 0.000000 0.000000 0.000000 0.889325 -0.547517 4.579495 -0.422228 0.377807 11.459800 -0.025356 -0.298952 0.584162 0.000000 0.000000 0.000000 -0.017302 -0.630188 12.248488 -2.031107 1.081585 -1.610514 2.931392 5.468849 8.498316 1.140177 2.218466 -22.739196 0.000000 0.000000 0.000000 -23.753077 4.384322 -7.775868 -43.614812 1.753980 -5.283315 -4.918356 -30.644402 1.766279 0.000000 0.000000 0.000000 18.685952 3.740162 2.905713 40.831528 16.430096 0.110842 -7.890425 29.100906 -0.246682 0.000000 0.000000 0.000000 
0.173259 0.946780 1.756109 -1.291608 8.024615 -8.161361 4.914499 -0.740114 -12.875524 2.929501 -1.651099 16.948673 -1.411298 -0.061445 4.945231 0.000000 0.000000 0.000000 -0.767850 -0.780889 7.192468 -0.917899 0.493042 10.161164 1.022081 2.460480 0.467269 0.000000 0.000000 0.000000 -0.527029 -0.503370 11.178131 -2.285186 1.158203 -0.553946 3.125252 6.347842 8.387405 1.364499 2.059888 -22.534475 0.000000 0.000000 0.000000 -22.762227 5.047802 -7.809943 -44.843017 2.919500 -5.944336 -5.716737 -30.506026 1.970971 0.000000 0.000000 0.000000 17.309222 4.550846 3.185563 40.836447 17.386956 0.552148 -8.071234 32.321816 -0.296924 0.000000 0.000000 0.000000 
0.193252 0.943473 1.795512 -1.173369 5.709874 -8.243409 3.964926 -0.647037 -10.640558 4.476466 -1.235603 9.187657 -3.881227 -2.306308 9.476909 0.000000 0.000000 0.000000 -1.350594 -0.917226 9.119843 -1.834445 0.771596 11.338759 1.586937 4.862786 -1.203715 0.000000 0.000000 0.000000 -0.884363 -0.418322 10.479584 -3.015068 1.509033 -0.805442 4.293540 7.011286 9.565001 2.099066 1.552580 -22.257317 0.000000 0.000000 0.000000 -22.586632 4.463671 -7.233091 -45.543343 3.983391 -6.584422 -5.061210 -30.599310 1.879501 0.000000 0.000000 0.000000 18.328741 4.544014 3.151276 38.830999 17.883317 0.462522 -7.371104 35.911476 -0.142893 0.000000 0.000000 0.000000 
